<?xml version="1.0" standalone="no"?>
<!DOCTYPE svg PUBLIC "-//W3C//DTD SVG 20010904//EN"
 "http://www.w3.org/TR/2001/REC-SVG-20010904/DTD/svg10.dtd">
<svg version="1.0" xmlns="http://www.w3.org/2000/svg"
 width="494.000000pt" height="498.000000pt" viewBox="0 0 494.000000 498.000000"
 preserveAspectRatio="xMidYMid meet">
<metadata>
Created by potrace 1.15, written by Peter Selinger 2001-2017
</metadata>
<g transform="translate(0.000000,498.000000) scale(0.100000,-0.100000)"
fill="#000000" stroke="none">
<path d="M4030 4445 c-1032 -273 -2864 -758 -3510 -929 l-45 -12 0 -464 0
-463 100 -27 c55 -15 273 -75 485 -133 212 -58 599 -164 860 -236 867 -238
831 -227 785 -239 -22 -6 -200 -54 -395 -106 -195 -52 -517 -138 -715 -190
-684 -180 -1010 -267 -1062 -282 l-53 -15 0 -460 c0 -434 1 -460 18 -455 13 4
670 177 1642 432 30 8 98 26 150 40 52 14 399 106 770 204 371 98 840 222
1043 276 l367 98 0 461 0 461 -227 63 c-126 34 -505 138 -843 231 -988 271
-1190 327 -1195 332 -4 3 219 64 1035 280 1058 280 1205 320 1213 327 4 4 6
212 5 463 l-3 455 -425 -112z m-170 -460 c0 -117 3 -155 13 -155 6 0 37 7 67
15 75 20 80 19 80 -15 0 -26 -5 -30 -42 -40 -24 -7 -74 -20 -113 -31 -38 -10
-71 -19 -72 -19 -2 0 -3 87 -3 194 0 210 -2 201 53 205 15 1 17 -13 17 -154z
m-183 70 c87 -58 69 -262 -31 -338 -47 -36 -128 -61 -172 -52 -148 27 -131
307 23 380 77 37 134 40 180 10z m-419 -96 c80 -28 104 -173 47 -278 -35 -64
-91 -104 -170 -122 -47 -10 -57 -10 -86 7 -57 34 -72 64 -72 147 0 123 58 209
163 242 56 17 79 18 118 4z m-338 -263 c0 -192 0 -194 -22 -200 -58 -15 -60
-13 -56 74 l3 81 -25 -6 c-14 -3 -49 -13 -77 -21 l-53 -15 0 -79 c0 -85 -9
-100 -59 -100 -20 0 -21 5 -21 189 0 187 0 189 23 195 54 14 57 11 57 -65 l0
-71 28 6 c15 4 50 13 77 21 l50 14 -3 66 c-5 82 1 91 71 104 4 0 7 -86 7 -193z
m-366 75 c3 -5 1 -22 -5 -39 -9 -27 -14 -30 -43 -25 -52 8 -119 -26 -141 -73
-39 -83 -25 -186 29 -200 27 -6 88 10 121 32 29 20 35 17 35 -16 0 -37 -39
-64 -116 -81 -109 -24 -166 27 -166 150 0 120 58 206 164 242 57 20 113 24
122 10z m-324 -90 c0 -5 -4 -21 -9 -34 -8 -20 -18 -25 -68 -30 -43 -4 -63 -12
-75 -28 -34 -41 -19 -60 55 -73 89 -16 119 -55 98 -126 -18 -62 -76 -102 -170
-120 -58 -11 -71 -4 -71 35 l0 32 56 2 c79 1 114 22 114 68 0 17 -7 24 -27 29
-84 19 -104 27 -122 51 -51 64 -5 152 98 189 42 15 121 18 121 5z m-400 -121
c0 -26 -5 -30 -42 -40 -109 -28 -108 -27 -108 -75 l0 -44 67 20 c38 10 69 19
70 19 2 0 3 -15 3 -33 0 -32 -1 -33 -70 -51 l-70 -18 0 -53 0 -53 63 19 c82
25 87 24 87 -10 0 -32 -5 -35 -127 -66 -34 -8 -69 -18 -78 -21 -13 -5 -15 18
-15 189 l0 194 93 26 c122 34 127 34 127 -3z m-280 -236 l0 -184 -26 -10 c-51
-20 -54 -16 -54 71 0 61 -3 80 -12 77 -7 -3 -43 -13 -80 -23 l-68 -18 0 -83 0
-82 -31 -11 c-18 -6 -34 -11 -35 -11 -2 0 -4 87 -4 194 0 192 0 194 23 200 45
12 47 9 47 -67 l0 -73 80 20 80 21 0 77 0 77 33 9 c17 5 35 7 40 5 4 -2 7 -87
7 -189z m-350 66 c0 -27 -4 -31 -55 -45 l-55 -16 0 -159 0 -158 -31 -11 c-18
-6 -36 -11 -40 -11 -5 0 -9 72 -9 159 l0 159 -52 -14 c-29 -7 -54 -14 -55 -14
-2 0 -3 14 -3 30 0 36 -5 33 150 76 148 41 150 41 150 4z m1393 -735 c-2 -25
-13 -47 -73 -142 -13 -20 -13 -25 2 -39 16 -16 19 -16 42 -1 35 24 53 22 31
-3 -10 -11 -26 -20 -37 -20 -21 0 -21 1 -7 -54 14 -57 -3 -126 -31 -126 -33 0
-54 45 -53 116 0 35 -3 64 -7 64 -4 0 -21 -13 -38 -30 -57 -54 -109 -33 -99
40 6 50 30 87 64 103 22 10 28 8 44 -12 11 -13 19 -37 19 -53 0 -25 3 -28 14
-19 8 7 17 28 21 49 3 20 11 54 17 75 23 76 96 119 91 52z m1367 -659 c0 -1
-5 -17 -11 -35 -10 -28 -15 -31 -50 -31 -114 0 -164 -88 -60 -106 103 -17 121
-33 121 -108 0 -40 -5 -51 -39 -85 -44 -44 -121 -74 -178 -69 -36 3 -38 5 -38
36 l0 33 63 3 c72 3 115 28 120 68 3 29 -6 34 -82 49 -67 12 -96 41 -96 93 0
23 9 55 20 74 27 45 108 82 178 82 28 0 52 -2 52 -4z m-315 -86 c3 -5 3 -21
-1 -35 -5 -22 -12 -25 -48 -25 -22 0 -57 -8 -76 -18 -28 -14 -35 -23 -35 -47
0 -29 3 -31 70 -47 86 -21 109 -44 102 -104 -9 -84 -89 -144 -199 -152 l-58
-4 0 36 0 36 53 0 c73 0 121 26 125 67 3 34 6 32 -86 53 -176 40 -83 243 115
249 17 1 34 -3 38 -9z m-305 -94 c0 -32 -3 -34 -47 -46 -103 -26 -98 -22 -101
-73 -2 -26 -2 -47 0 -47 2 0 33 9 70 19 36 11 69 17 72 13 13 -12 5 -52 -11
-61 -10 -5 -44 -14 -75 -21 l-58 -13 0 -54 c0 -60 1 -60 74 -38 71 22 78 20
74 -16 -3 -31 -6 -33 -82 -55 -43 -12 -93 -25 -112 -29 l-34 -6 0 200 0 200
43 11 c23 6 69 19 102 29 84 26 85 26 85 -13z m-302 -256 l-3 -194 -42 -12
-43 -13 -87 120 -88 120 -3 -145 c-2 -139 -3 -144 -25 -150 -48 -13 -47 -18
-47 194 l0 199 38 10 c20 6 39 11 42 11 3 0 46 -54 95 -121 l90 -120 3 145 3
145 27 9 c15 5 30 6 35 3 4 -4 6 -95 5 -201z m-378 70 c0 -28 -4 -31 -60 -47
l-60 -16 0 -168 0 -168 -32 -9 -33 -8 -3 167 -2 168 -48 -14 c-68 -21 -74 -20
-70 17 l3 33 130 36 c167 47 175 48 175 9z m-403 -157 c17 -43 51 -124 74
-180 23 -57 41 -105 38 -107 -2 -2 -20 -7 -40 -11 -36 -7 -37 -6 -54 40 -17
44 -20 46 -49 39 -103 -23 -107 -25 -130 -89 -18 -51 -25 -61 -54 -69 -18 -5
-34 -7 -37 -4 -6 6 131 416 145 433 10 12 28 19 65 24 6 0 24 -34 42 -76z
m-309 -34 c-3 -30 -7 -33 -78 -53 l-75 -21 -3 -46 -3 -47 68 19 c87 24 83 24
83 -13 0 -32 -2 -33 -73 -53 l-72 -20 -3 -52 c-2 -29 1 -53 5 -53 4 0 40 9 78
20 38 11 71 20 72 20 2 0 3 -16 3 -35 0 -32 -3 -35 -42 -45 -45 -12 -141 -37
-170 -46 -17 -5 -18 9 -18 196 0 172 2 201 15 207 31 11 180 51 198 52 15 1
18 -5 15 -30z m-329 -100 c42 -45 32 -121 -23 -172 l-25 -23 54 -70 c30 -38
51 -72 47 -76 -4 -3 -23 -9 -42 -13 -34 -5 -36 -4 -79 58 -40 58 -48 64 -70
57 -25 -6 -26 -11 -31 -85 -5 -83 -10 -89 -67 -94 -19 -1 -19 384 -1 396 23
15 132 41 175 42 31 1 47 -5 62 -20z m-322 -63 c3 -2 1 -17 -4 -33 -9 -26 -15
-29 -73 -35 -37 -4 -75 -15 -90 -26 -60 -45 -87 -121 -70 -197 12 -54 34 -68
92 -61 73 8 88 20 88 67 l0 41 -46 -7 -45 -6 3 32 c3 32 6 34 73 51 39 10 73
18 78 18 4 0 7 -47 7 -104 l0 -103 -59 -27 c-179 -80 -273 -38 -273 123 0 40
7 84 17 107 18 44 76 108 117 130 58 30 167 48 185 30z"/>
<path d="M3546 4000 c-63 -19 -96 -76 -96 -163 0 -64 27 -107 66 -107 39 0 91
26 110 54 38 60 37 184 -2 213 -20 15 -36 15 -78 3z"/>
<path d="M3130 3882 c-66 -32 -98 -139 -66 -216 18 -44 53 -53 111 -27 58 26
79 66 80 152 0 103 -42 133 -125 91z"/>
</g>
</svg>
