<?xml version="1.0" standalone="no"?>
<!DOCTYPE svg PUBLIC "-//W3C//DTD SVG 20010904//EN"
 "http://www.w3.org/TR/2001/REC-SVG-20010904/DTD/svg10.dtd">
<svg version="1.0" xmlns="http://www.w3.org/2000/svg"
 width="324.000000pt" height="800.000000pt" viewBox="0 0 324.000000 800.000000"
 preserveAspectRatio="xMidYMid meet">
<metadata>
Created by potrace 1.15, written by Peter Selinger 2001-2017
</metadata>
<g transform="translate(0.000000,800.000000) scale(0.100000,-0.100000)"
fill="#000000" stroke="none">
<path d="M1072 7880 c-157 -24 -242 -136 -242 -321 0 -70 19 -199 35 -240 5
-13 -3 -17 -45 -21 -96 -10 -180 -95 -220 -224 -38 -125 -42 -210 -32 -744 11
-551 11 -556 77 -710 103 -246 346 -453 600 -512 l55 -13 0 -147 c0 -179 -5
-188 -97 -188 -107 0 -244 -20 -321 -46 -239 -79 -422 -273 -498 -529 -16 -55
-18 -124 -21 -775 l-4 -714 -32 -65 c-31 -64 -32 -69 -32 -196 0 -116 2 -135
23 -172 39 -74 51 -78 257 -78 99 0 192 3 206 7 l26 8 6 -929 c6 -778 5 -934
-7 -967 -19 -55 -28 -117 -18 -132 7 -9 90 -12 383 -10 l374 3 -2 52 c-1 28
-9 69 -18 90 -15 34 -16 116 -9 826 l7 787 64 0 63 0 0 -789 c0 -636 -3 -796
-13 -827 -19 -54 -28 -117 -19 -132 7 -10 90 -12 383 -10 l374 3 3 30 c2 17
-6 59 -17 95 -20 63 -21 90 -21 989 0 878 1 923 17 915 30 -13 353 -17 394 -5
85 26 125 120 117 281 -3 71 -10 97 -37 155 l-33 70 -4 685 c-6 786 -6 785
-84 945 -35 74 -66 120 -115 173 -162 174 -319 244 -581 258 -183 9 -174 0
-174 192 l0 148 71 18 c257 66 498 284 593 535 61 160 61 158 61 741 0 521 -1
537 -22 622 -38 147 -106 253 -180 280 -34 12 -34 13 -28 56 3 23 1 68 -6 99
-16 78 -56 119 -125 127 -225 27 -295 48 -509 148 -185 87 -256 114 -359 138
-102 23 -196 30 -264 20z m281 -80 c79 -21 154 -52 372 -153 143 -67 263 -102
404 -120 95 -12 106 -15 125 -41 17 -23 21 -42 21 -109 0 -132 2 -128 -122
-167 -223 -68 -327 -84 -548 -84 -168 -1 -218 3 -311 22 -140 28 -325 80 -342
96 -24 23 -64 206 -65 301 -3 161 48 244 168 276 49 13 214 2 298 -21z m-367
-640 c162 -56 372 -96 554 -106 183 -10 444 30 664 102 77 26 78 26 105 7 43
-31 108 -174 148 -328 l37 -140 4 -398 c3 -341 1 -411 -13 -480 -66 -325 -315
-578 -641 -653 -123 -28 -447 -26 -569 5 -315 78 -547 314 -620 635 -14 58
-15 132 -13 480 4 410 4 411 31 510 38 141 97 256 166 327 31 33 64 59 72 59
9 0 42 -9 75 -20z m786 -2229 c3 -132 5 -153 24 -178 37 -51 77 -63 202 -63
129 0 125 4 97 -105 -24 -90 -73 -174 -145 -245 -77 -77 -166 -124 -278 -147
-225 -46 -472 78 -574 288 -37 75 -65 180 -53 199 3 6 50 10 108 10 114 0 155
14 191 63 19 25 21 46 24 178 l4 149 198 0 198 0 4 -149z m-792 -285 c0 -54
52 -187 101 -261 181 -270 548 -345 820 -167 81 53 132 105 184 187 39 60 85
188 85 234 0 37 7 38 84 11 216 -74 382 -254 448 -487 21 -75 22 -95 23 -483
l0 -405 -177 -3 -178 -2 0 229 c0 195 -2 232 -16 245 -49 49 -51 27 -57 -523
l-5 -513 -28 -29 -28 -29 -661 0 -662 0 -24 26 -24 26 -5 520 c-5 472 -7 522
-22 531 -12 8 -21 7 -32 -2 -14 -12 -16 -46 -16 -247 l0 -234 -180 0 -180 0 0
403 c0 371 2 410 20 483 57 223 212 399 430 487 83 34 100 34 100 3z m-189
-1563 c0 -71 4 -192 8 -271 l9 -143 56 -59 c31 -33 68 -83 81 -112 44 -97 55
-236 23 -275 -14 -17 -49 -17 -73 1 -17 12 -19 25 -16 90 3 95 -24 169 -61
164 -26 -3 -28 -26 -7 -93 17 -56 6 -109 -27 -123 -37 -18 -44 -15 -44 17 0
16 -7 34 -15 41 -22 19 -45 -5 -45 -46 0 -32 -2 -34 -35 -34 -35 0 -35 0 -35
44 0 57 -8 76 -30 76 -22 0 -30 -19 -30 -76 0 -42 -1 -44 -30 -44 -27 0 -30 3
-30 33 0 41 -12 60 -36 55 -14 -2 -20 -13 -22 -41 -3 -40 -5 -42 -31 -27 -33
17 -46 69 -46 181 0 100 2 109 33 169 l33 64 6 268 6 268 179 0 178 0 1 -127z
m1939 -137 l0 -263 34 -66 c41 -79 53 -155 38 -250 -16 -103 -82 -165 -82 -76
0 36 -2 40 -22 37 -19 -2 -24 -10 -26 -46 -3 -42 -4 -43 -35 -40 -31 3 -32 5
-37 58 -4 47 -8 55 -25 55 -17 0 -20 -8 -23 -58 l-3 -58 -37 3 c-34 3 -37 6
-40 38 -2 19 -7 39 -12 44 -15 15 -40 -14 -40 -45 0 -35 -29 -40 -60 -9 -25
25 -27 107 -4 151 19 38 12 61 -18 57 -38 -5 -63 -69 -63 -159 0 -83 -12 -109
-51 -109 -52 0 -68 83 -39 206 18 78 45 126 108 191 63 65 65 79 66 381 l1
222 185 0 185 0 0 -264z m-1498 -2477 c103 -22 190 -88 229 -172 37 -83 59
-77 -296 -77 -355 0 -333 -6 -296 77 38 82 133 153 232 172 62 12 72 12 131 0z
m839 -3 c104 -24 180 -83 220 -171 37 -80 58 -75 -296 -75 -173 0 -315 4 -315
9 0 4 5 23 12 42 31 92 114 165 218 193 69 19 92 19 161 2z"/>
<path d="M1069 6627 c-69 -20 -133 -61 -154 -101 -17 -31 -18 -42 -8 -88 15
-72 50 -161 74 -192 73 -92 254 -114 360 -43 38 25 97 128 126 220 16 50 22
58 51 66 52 15 99 -3 110 -42 37 -127 98 -229 156 -260 56 -30 203 -32 256 -3
44 23 88 63 105 96 26 49 55 154 55 197 0 37 -6 49 -39 82 -48 48 -112 71
-217 78 -122 8 -216 -18 -279 -77 -28 -27 -32 -28 -72 -17 -32 8 -54 8 -85 0
-39 -11 -44 -10 -65 13 -45 48 -127 77 -232 81 -59 2 -114 -2 -142 -10z m212
-51 c72 -16 120 -45 137 -79 11 -23 9 -35 -18 -101 -56 -134 -94 -172 -187
-182 -121 -15 -195 41 -238 179 -26 82 -26 88 -11 112 44 67 193 101 317 71z
m758 -7 c23 -7 58 -27 79 -44 l37 -32 -18 -74 c-24 -97 -57 -154 -108 -180
-78 -39 -184 -35 -242 11 -44 35 -114 201 -103 245 19 74 217 115 355 74z"/>
<path d="M1118 6460 c-41 -22 -68 -55 -68 -82 0 -28 29 -21 71 17 31 28 47 35
80 35 46 0 91 -20 112 -51 15 -21 47 -23 54 -3 6 18 -48 75 -84 90 -46 20
-121 17 -165 -6z"/>
<path d="M1815 6468 c-32 -17 -85 -71 -85 -85 0 -29 32 -25 66 8 32 31 41 34
94 34 53 0 62 -3 94 -34 34 -33 66 -37 66 -8 0 15 -55 69 -87 86 -28 14 -122
14 -148 -1z"/>
<path d="M1585 6099 c-4 -5 8 -46 26 -90 37 -91 36 -94 -39 -105 -45 -7 -63
-27 -43 -47 17 -17 119 7 148 35 29 27 26 40 -22 145 -32 69 -54 89 -70 62z"/>
<path d="M1300 5601 c0 -22 48 -66 94 -85 49 -20 109 -27 161 -17 58 11 75 25
55 45 -12 11 -25 13 -60 6 -65 -13 -115 -2 -172 36 -57 39 -78 42 -78 15z"/>
</g>
</svg>
