<?xml version="1.0" standalone="no"?>
<!DOCTYPE svg PUBLIC "-//W3C//DTD SVG 20010904//EN"
 "http://www.w3.org/TR/2001/REC-SVG-20010904/DTD/svg10.dtd">
<svg version="1.0" xmlns="http://www.w3.org/2000/svg"
 width="200.000000pt" height="200.000000pt" viewBox="0 0 200.000000 200.000000"
 preserveAspectRatio="xMidYMid meet">
<metadata>
Created by potrace 1.15, written by Peter Selinger 2001-2017
</metadata>
<g transform="translate(0.000000,200.000000) scale(0.100000,-0.100000)"
fill="#000000" stroke="none">
<path d="M571 1810 c-110 -40 -119 -60 -79 -164 46 -122 148 -193 263 -184 65
6 154 39 180 69 22 23 15 62 -24 145 -64 136 -193 187 -340 134z m160 -60 c19
-5 49 -23 66 -40 28 -28 73 -107 73 -129 0 -17 -81 -41 -139 -41 -58 0 -91 15
-129 60 -23 26 -54 101 -48 115 5 14 84 43 121 44 11 1 36 -4 56 -9z"/>
<path d="M1044 1553 c-31 -40 -73 -137 -74 -168 -1 -42 -14 -49 -60 -31 -183
73 -422 -25 -506 -209 -114 -249 -29 -537 219 -733 74 -58 360 -242 377 -242
12 0 60 30 266 164 120 77 242 194 292 278 59 100 85 190 86 298 1 240 -126
415 -332 459 -88 18 -125 15 -251 -25 -23 -7 -24 -6 -17 31 7 36 33 92 73 157
14 22 15 29 4 42 -21 26 -47 19 -77 -21z m-141 -276 l38 -17 -30 -37 c-67 -84
-109 -216 -76 -243 25 -20 46 -3 65 56 44 128 112 208 208 244 75 29 194 24
264 -9 198 -95 259 -381 129 -607 -66 -113 -163 -199 -374 -331 l-129 -80 -65
41 c-212 135 -255 166 -328 240 -120 122 -175 241 -175 380 0 183 84 317 230
370 57 20 189 17 243 -7z"/>
<path d="M577 1102 c-54 -59 -69 -237 -29 -325 35 -78 90 -147 117 -147 28 0
40 27 23 50 -86 118 -98 146 -98 234 0 41 8 80 25 120 18 44 21 63 13 73 -15
18 -32 16 -51 -5z"/>
</g>
</svg>
