<?xml version="1.0" standalone="no"?>
<!DOCTYPE svg PUBLIC "-//W3C//DTD SVG 20010904//EN"
 "http://www.w3.org/TR/2001/REC-SVG-20010904/DTD/svg10.dtd">
<svg version="1.0" xmlns="http://www.w3.org/2000/svg"
 width="200.000000pt" height="126.000000pt" viewBox="0 0 200.000000 126.000000"
 preserveAspectRatio="xMidYMid meet">
<metadata>
Created by potrace 1.14, written by Peter Selinger 2001-2017
</metadata>
<g transform="translate(0.000000,126.000000) scale(0.100000,-0.100000)"
fill="#000000" stroke="none">
<path d="M0 630 l0 -630 1000 0 1000 0 0 630 0 630 -1000 0 -1000 0 0 -630z
m688 385 c-2 -21 -11 -30 -38 -39 -44 -14 -48 -29 -49 -189 -1 -121 -2 -130
-24 -149 l-23 -21 23 -23 c22 -22 23 -31 23 -151 0 -145 9 -173 58 -188 28 -8
32 -14 32 -42 0 -29 -3 -33 -26 -33 -48 0 -95 31 -115 74 -15 33 -19 66 -19
171 0 72 -4 135 -8 142 -4 6 -20 15 -35 18 -22 6 -27 13 -27 36 0 24 4 29 23
29 42 0 47 16 48 155 0 144 11 188 50 218 30 22 90 38 102 27 5 -4 7 -20 5
-35z m742 16 c49 -34 60 -74 60 -214 0 -71 5 -137 10 -148 7 -12 21 -19 40
-19 26 0 30 -4 30 -29 0 -25 -5 -30 -34 -35 -19 -4 -37 -14 -40 -22 -3 -9 -6
-74 -6 -145 0 -180 -22 -223 -120 -236 l-40 -6 0 37 c0 31 3 36 24 36 15 0 33
11 45 26 19 24 21 40 21 161 0 129 1 135 24 156 l24 22 -24 28 c-23 27 -24 35
-24 160 0 147 -9 173 -58 179 -28 3 -40 32 -28 64 7 17 61 9 96 -15z m-603
-101 c43 -26 63 -68 63 -130 0 -63 -23 -116 -59 -135 -37 -18 -96 -28 -126
-21 l-25 6 0 150 0 150 58 0 c39 0 67 -6 89 -20z m263 -10 c0 -29 -2 -30 -45
-30 -43 0 -45 -1 -45 -30 0 -28 2 -30 40 -30 38 0 40 -2 40 -30 0 -28 -2 -30
-40 -30 -38 0 -40 -2 -40 -30 0 -29 2 -30 45 -30 43 0 45 -1 45 -30 l0 -30
-80 0 -80 0 0 150 0 150 80 0 80 0 0 -30z m135 -55 c20 -72 22 -77 29 -50 4
17 14 54 22 83 15 50 17 52 50 52 19 0 34 -3 34 -8 0 -4 -22 -73 -48 -152 -65
-193 -69 -193 -133 5 -27 83 -49 151 -49 153 0 2 17 2 37 0 l37 -3 21 -80z
m112 -287 c8 -7 9 -17 1 -38 -8 -25 -13 -28 -28 -20 -26 14 -60 12 -60 -2 0
-7 23 -34 50 -59 42 -39 50 -52 50 -82 0 -49 -8 -65 -41 -82 -35 -19 -60 -19
-104 -1 -33 14 -34 16 -24 45 11 32 23 39 34 21 3 -5 19 -10 36 -10 44 0 37
26 -21 80 -52 48 -62 79 -39 121 22 42 108 58 146 27z m-477 -18 c0 -28 -3
-30 -35 -30 l-35 0 0 -120 0 -120 -35 0 -35 0 0 120 0 120 -30 0 c-27 0 -30 3
-30 30 l0 30 100 0 100 0 0 -30z m80 -121 l0 -150 -32 3 c-18 2 -32 6 -30 11
1 4 2 70 2 147 l0 140 30 0 30 0 0 -151z m174 140 c34 -16 60 -72 52 -114 -8
-40 -57 -85 -92 -85 -22 0 -24 -4 -24 -45 0 -45 0 -45 -35 -45 l-35 0 0 150 0
150 55 0 c30 0 65 -5 79 -11z"/>
</g>
</svg>
